REM DIRINDEX 1\2,1\3,1\4
REM DIRNAME folder01,folder02,folder03,folder04
TITLE ""
FILE "DISC3Track14.mp3" MP3
  TRACK 01 AUDIO
    TITLE "0:"
    INDEX 01 00:00:00
  TRACK 02 AUDIO
    TITLE "4:cjc105_4806"
    INDEX 01 00:00:19
  TRACK 03 AUDIO
    TITLE "0:"
    INDEX 01 00:04:11
  TRACK 04 AUDIO
    TITLE "4:cjc105_4807"
    INDEX 01 00:04:60
  TRACK 05 AUDIO
    TITLE "0:"
    INDEX 01 00:08:17
  TRACK 06 AUDIO
    TITLE "4:cjc105_4808"
    INDEX 01 00:08:44
  TRACK 07 AUDIO
    TITLE "0:"
    INDEX 01 00:10:61
  TRACK 08 AUDIO
    TITLE "2:cjc105_4809"
    INDEX 01 00:11:31
  TRACK 09 AUDIO
    TITLE "3:cjc105_4810"
    INDEX 01 00:13:10
  TRACK 10 AUDIO
    TITLE "0:"
    INDEX 01 00:14:23
  TRACK 11 AUDIO
    TITLE "2:cjc105_4811"
    INDEX 01 00:14:45
  TRACK 12 AUDIO
    TITLE "3:cjc105_4812"
    INDEX 01 00:15:70
  TRACK 13 AUDIO
    TITLE "0:"
    INDEX 01 00:17:25
  TRACK 14 AUDIO
    TITLE "2:cjc105_4813"
    INDEX 01 00:17:41
  TRACK 15 AUDIO
    TITLE "3:cjc105_4814"
    INDEX 01 00:18:74
  TRACK 16 AUDIO
    TITLE "0:"
    INDEX 01 00:20:02
  TRACK 17 AUDIO
    TITLE "2:cjc105_4815"
    INDEX 01 00:20:22
  TRACK 18 AUDIO
    TITLE "3:cjc105_4816"
    INDEX 01 00:21:62
  TRACK 19 AUDIO
    TITLE "0:"
    INDEX 01 00:23:16
  TRACK 20 AUDIO
    TITLE "2:cjc105_4817"
    INDEX 01 00:23:34
  TRACK 21 AUDIO
    TITLE "3:cjc105_4818"
    INDEX 01 00:24:67
  TRACK 22 AUDIO
    TITLE "0:"
    INDEX 01 00:26:11
  TRACK 23 AUDIO
    TITLE "2:cjc105_4819"
    INDEX 01 00:26:32
  TRACK 24 AUDIO
    TITLE "3:cjc105_4820"
    INDEX 01 00:27:34
  TRACK 25 AUDIO
    TITLE "0:"
    INDEX 01 00:28:43
  TRACK 26 AUDIO
    TITLE "2:cjc105_4821"
    INDEX 01 00:28:62
  TRACK 27 AUDIO
    TITLE "3:cjc105_4822"
    INDEX 01 00:30:08
  TRACK 28 AUDIO
    TITLE "0:"
    INDEX 01 00:31:33
  TRACK 29 AUDIO
    TITLE "2:cjc105_4823"
    INDEX 01 00:31:53
  TRACK 30 AUDIO
    TITLE "3:cjc105_4824"
    INDEX 01 00:33:13
  TRACK 31 AUDIO
    TITLE "0:"
    INDEX 01 00:34:34
  TRACK 32 AUDIO
    TITLE "2:cjc105_4825"
    INDEX 01 00:34:51
  TRACK 33 AUDIO
    TITLE "3:cjc105_4826"
    INDEX 01 00:36:17
  TRACK 34 AUDIO
    TITLE "0:"
    INDEX 01 00:37:32
  TRACK 35 AUDIO
    TITLE "2:cjc105_4827"
    INDEX 01 00:37:48
  TRACK 36 AUDIO
    TITLE "3:cjc105_4828"
    INDEX 01 00:39:11
  TRACK 37 AUDIO
    TITLE "0:"
    INDEX 01 00:40:17
  TRACK 38 AUDIO
    TITLE "2:cjc105_4829"
    INDEX 01 00:40:36
  TRACK 39 AUDIO
    TITLE "3:cjc105_4830"
    INDEX 01 00:42:29
  TRACK 40 AUDIO
    TITLE "0:"
    INDEX 01 00:43:74
  TRACK 41 AUDIO
    TITLE "2:cjc105_4831"
    INDEX 01 00:44:18
  TRACK 42 AUDIO
    TITLE "3:cjc105_4832"
    INDEX 01 00:45:51
  TRACK 43 AUDIO
    TITLE "0:"
    INDEX 01 00:46:72
  TRACK 44 AUDIO
    TITLE "2:cjc105_4833"
    INDEX 01 00:47:17
  TRACK 45 AUDIO
    TITLE "3:cjc105_4834"
    INDEX 01 00:48:36
  TRACK 46 AUDIO
    TITLE "0:"
    INDEX 01 00:50:05
  TRACK 47 AUDIO
    TITLE "2:cjc105_4835"
    INDEX 01 00:50:25
  TRACK 48 AUDIO
    TITLE "3:cjc105_4836"
    INDEX 01 00:51:52
  TRACK 49 AUDIO
    TITLE "0:"
    INDEX 01 00:52:65
  TRACK 50 AUDIO
    TITLE "2:cjc105_4837"
    INDEX 01 00:53:09
  TRACK 51 AUDIO
    TITLE "3:cjc105_4838"
    INDEX 01 00:54:36
  TRACK 52 AUDIO
    TITLE "0:"
    INDEX 01 00:55:65
  TRACK 53 AUDIO
    TITLE "2:cjc105_4839"
    INDEX 01 00:56:10
  TRACK 54 AUDIO
    TITLE "3:cjc105_4840"
    INDEX 01 00:57:52
  TRACK 55 AUDIO
    TITLE "0:"
    INDEX 01 00:58:58
  TRACK 56 AUDIO
    TITLE "2:cjc105_4841"
    INDEX 01 00:59:04
  TRACK 57 AUDIO
    TITLE "3:cjc105_4842"
    INDEX 01 01:00:27
  TRACK 58 AUDIO
    TITLE "0:"
    INDEX 01 01:01:48
  TRACK 59 AUDIO
    TITLE "2:cjc105_4843"
    INDEX 01 01:01:68
  TRACK 60 AUDIO
    TITLE "3:cjc105_4844"
    INDEX 01 01:03:59
  TRACK 61 AUDIO
    TITLE "0:"
    INDEX 01 01:05:07
  TRACK 62 AUDIO
    TITLE "2:cjc105_4845"
    INDEX 01 01:05:26
  TRACK 63 AUDIO
    TITLE "3:cjc105_4846"
    INDEX 01 01:07:21
  TRACK 64 AUDIO
    TITLE "0:"
    INDEX 01 01:08:56
  TRACK 65 AUDIO
    TITLE "2:cjc105_4847"
    INDEX 01 01:09:03
  TRACK 66 AUDIO
    TITLE "3:cjc105_4848"
    INDEX 01 01:10:55
  TRACK 67 AUDIO
    TITLE "0:"
    INDEX 01 01:12:17
  TRACK 68 AUDIO
    TITLE "2:cjc105_4849"
    INDEX 01 01:12:40
  TRACK 69 AUDIO
    TITLE "3:cjc105_4850"
    INDEX 01 01:14:31
  TRACK 70 AUDIO
    TITLE "0:"
    INDEX 01 01:16:38
  TRACK 71 AUDIO
    TITLE "2:cjc105_4851"
    INDEX 01 01:16:56
  TRACK 72 AUDIO
    TITLE "3:cjc105_4852"
    INDEX 01 01:18:06
  TRACK 73 AUDIO
    TITLE "0:"
    INDEX 01 01:19:28
  TRACK 74 AUDIO
    TITLE "2:cjc105_4853"
    INDEX 01 01:19:48
  TRACK 75 AUDIO
    TITLE "3:cjc105_4854"
    INDEX 01 01:21:20
  TRACK 76 AUDIO
    TITLE "0:"
    INDEX 01 01:22:44
  TRACK 77 AUDIO
    TITLE "2:cjc105_4855"
    INDEX 01 01:22:66
  TRACK 78 AUDIO
    TITLE "3:cjc105_4856"
    INDEX 01 01:24:30
  TRACK 79 AUDIO
    TITLE "0:"
    INDEX 01 01:25:68
  TRACK 80 AUDIO
    TITLE "2:cjc105_4857"
    INDEX 01 01:26:09
  TRACK 81 AUDIO
    TITLE "3:cjc105_4858"
    INDEX 01 01:27:36
  TRACK 82 AUDIO
    TITLE "0:"
    INDEX 01 01:28:65
  TRACK 83 AUDIO
    TITLE "2:cjc105_4859"
    INDEX 01 01:29:11
  TRACK 84 AUDIO
    TITLE "3:cjc105_4860"
    INDEX 01 01:30:64
  TRACK 85 AUDIO
    TITLE "0:"
    INDEX 01 01:32:13
